<svg xmlns="http://www.w3.org/2000/svg" viewBox="0 0 512 512">
            <!--!Font Awesome Free 6.6.0 by @fontawesome - https://fontawesome.com License - https://fontawesome.com/license/free Copyright 2024 Fonticons, Inc.-->
            <style>
            svg {
                fill: #4ead00
            }
            </style>
            <path d="M504 256c0 137-111 248-248 248S8 393 8 256 119 8 256 8s248 111 248 248zM227.3 387.3l184-184c6.2-6.2 6.2-16.4 0-22.6l-22.6-22.6c-6.2-6.2-16.4-6.2-22.6 0L216 308.1l-70.1-70.1c-6.2-6.2-16.4-6.2-22.6 0l-22.6 22.6c-6.2 6.2-6.2 16.4 0 22.6l104 104c6.2 6.2 16.4 6.2 22.6 0z"/></svg>

<svg xmlns="http://www.w3.org/2000/svg" height="40px" viewBox="0 0 512 512">
            <!--! Font Awesome Free 6.4.2 by @fontawesome - https://fontawesome.com License - https://fontawesome.com/license (Commercial License) Copyright 2023 Fonticons, Inc. -->
            <style>
            svg {
                fill: #4ead00
            }
            </style>
            <path
                d="M256 512A256 256 0 1 0 256 0a256 256 0 1 0 0 512zM369 209L241 337c-9.4 9.4-24.6 9.4-33.9 0l-64-64c-9.4-9.4-9.4-24.6 0-33.9s24.6-9.4 33.9 0l47 47L335 175c9.4-9.4 24.6-9.4 33.9 0s9.4 24.6 0 33.9z" />
        </svg>